Coordinates
version=1
nRows=17
nColumns=24
inDegrees=yes

Units are S.I. units (second, meters, Newtons, ...)
Angles are in degrees.

endheader
time	pelvis_tilt	pelvis_list	pelvis_rotation	pelvis_tx	pelvis_ty	pelvis_tz	hip_flexion_r	hip_adduction_r	hip_rotation_r	knee_angle_r	ankle_angle_r	subtalar_angle_r	mtp_angle_r	hip_flexion_l	hip_adduction_l	hip_rotation_l	knee_angle_l	ankle_angle_l	subtalar_angle_l	mtp_angle_l	lumbar_extension	lumbar_bending	lumbar_rotation
      1.42483333	      2.56020055	      5.96794277	     -3.28836361	      0.31894731	      1.01562487	      0.30965590	     13.31744257	     -8.81652060	     -1.03952650	    -72.38462281	    -10.13382840	    -10.28182788	      0.10466499	      3.65820265	     11.50774597	      5.98887398	    -10.35725227	      3.87770608	    -17.55816991	     -8.43277139	    -14.03136241	     -0.23057289	     -3.49007443
      1.42900000	      2.54693301	      5.72232659	     -3.21694944	      0.32373497	      1.01651555	      0.30921708	     13.88212927	     -8.51792260	     -1.18160503	    -72.15317988	     -9.52469110	    -10.51640140	      0.10519334	      3.11775620	     11.26324163	      6.11335908	     -9.89683656	      3.90639346	    -17.48194013	     -8.43242526	    -14.04118257	      0.12673461	     -3.61439023
      1.43316667	      2.57211562	      5.48393682	     -3.13228047	      0.32855956	      1.01742413	      0.30875816	     14.37651390	     -8.23614545	     -1.34366171	    -71.84650982	     -8.93696420	    -10.70996732	      0.08341363	      2.50707825	     11.02986961	      6.30904647	     -9.38154153	      3.91965044	    -17.47120876	     -8.43325490	    -14.07464171	      0.48805630	     -3.93891770
      1.43733333	      2.57510202	      5.24455601	     -3.04259749	      0.33336269	      1.01826781	      0.30830052	     14.88240090	     -7.94954509	     -1.51091292	    -71.48651057	     -8.31128055	    -10.91032292	      0.04949211	      1.93502100	     10.78958850	      6.46997958	     -8.88964885	      3.91982971	    -17.43866978	     -8.43492275	    -14.08444652	      0.84029210	     -4.16053179
      1.44150000	      2.59823348	      5.02391002	     -2.94715992	      0.33816722	      1.01908047	      0.30783232	     15.35149932	     -7.69134463	     -1.69102689	    -71.07500948	     -7.65375797	    -11.10284895	     -0.01419441	      1.34196163	     10.56807940	      6.62715731	     -8.39397483	      3.89990976	    -17.40696813	     -8.43807995	    -14.12276026	      1.17629750	     -4.40671117
      1.44566667	      2.56791824	      4.77788792	     -2.85150675	      0.34297529	      1.01979247	      0.30738982	     15.85868689	     -7.38882395	     -1.85804148	    -70.59772181	     -6.99403288	    -11.28334677	     -0.03422547	      0.82912307	     10.31072531	      6.72531059	     -7.94780468	      3.92868279	    -17.30934383	     -8.43839946	    -14.10474931	      1.51407596	     -4.48788647
      1.44983333	      2.56447783	      4.53407113	     -2.75133234	      0.34778064	      1.02049252	      0.30694340	     16.31830345	     -7.09412280	     -2.03610049	    -70.06011790	     -6.32570069	    -11.43730205	     -0.06074199	      0.28305379	     10.05484466	      6.83502123	     -7.49052037	      3.95872744	    -17.20788305	     -8.43840921	    -14.11470864	      1.86140244	     -4.64206225
      1.45400000	      2.60761853	      4.30870305	     -2.65378222	      0.35260568	      1.02120667	      0.30649195	     16.71056493	     -6.82858985	     -2.21603042	    -69.46355085	     -5.69122655	    -11.53422546	     -0.13949386	     -0.33504263	      9.82000733	      6.98842446	     -6.98537620	      3.99613422	    -17.13042761	     -8.43959413	    -14.16343330	      2.21757966	     -4.96907140
      1.45816667	      2.61624592	      4.08007012	     -2.55505307	      0.35744264	      1.02182934	      0.30605652	     17.12427131	     -6.55730202	     -2.40166452	    -68.81596437	     -5.01903206	    -11.65252969	     -0.20161362	     -0.89182307	      9.57561635	      7.07736985	     -6.52860081	      4.02684053	    -17.03384440	     -8.44051466	    -14.16071779	      2.54830874	     -5.12051943
      1.46233333	      2.58768921	      3.85792186	     -2.45060873	      0.36223594	      1.02232507	      0.30562641	     17.57164110	     -6.28375911	     -2.57249031	    -68.12965883	     -4.32685545	    -11.77452665	     -0.24238523	     -1.38779637	      9.33455190	      7.15894641	     -6.10594761	      4.04942938	    -16.91186275	     -8.44062988	    -14.16106344	      2.86956355	     -5.23380583
      1.46650000	      2.64456330	      3.64918643	     -2.35838591	      0.36707121	      1.02289486	      0.30520840	     17.90404059	     -6.03588710	     -2.74294158	    -67.37665949	     -3.66867881	    -11.80662610	     -0.33341123	     -2.00295448	      9.10890409	      7.26450554	     -5.62830387	      4.11002069	    -16.79079028	     -8.44067705	    -14.21698509	      3.18869699	     -5.48831449
      1.47066667	      2.62526194	      3.43492852	     -2.25282887	      0.37188372	      1.02331649	      0.30480758	     18.30414085	     -5.77097169	     -2.91271495	    -66.57570557	     -2.98266727	    -11.89224206	     -0.38660026	     -2.49704781	      8.87105204	      7.32194615	     -5.22616806	      4.13720470	    -16.67355366	     -8.44086048	    -14.20278519	      3.48435982	     -5.59307180
      1.47483333	      2.63546987	      3.22586641	     -2.15716826	      0.37672140	      1.02371859	      0.30441716	     18.65537675	     -5.51498215	     -3.07554313	    -65.71972989	     -2.32489469	    -11.91669348	     -0.45851976	     -3.03447291	      8.63858496	      7.39267838	     -4.80002112	      4.19379927	    -16.55184113	     -8.44011312	    -14.20794362	      3.78296802	     -5.75952662
      1.47900000	      2.68172564	      3.05337281	     -2.06362626	      0.38153969	      1.02408484	      0.30403958	     18.96356010	     -5.30342615	     -3.23014859	    -64.83725262	     -1.66040753	    -11.93962343	     -0.63452269	     -3.61350161	      8.44414749	      7.48430556	     -4.35878496	      4.23391367	    -16.42117652	     -8.43972781	    -14.27188038	      4.05438853	     -6.01326919
      1.48316667	      2.65794612	      2.85673453	     -1.97213834	      0.38637021	      1.02433537	      0.30367520	     19.32461447	     -5.05448616	     -3.37191824	    -63.88424977	     -1.03853893	    -11.94399780	     -0.70254347	     -4.09086215	      8.22170967	      7.53757289	     -3.97482941	      4.29358770	    -16.31449218	     -8.43870094	    -14.24072967	      4.32981156	     -6.07835788
      1.48733333	      2.69478755	      2.69080743	     -1.89022785	      0.39120789	      1.02458325	      0.30332596	     19.61160686	     -4.84561364	     -3.50559582	    -62.89970957	     -0.43072768	    -11.91533342	     -0.82837763	     -4.65254191	      8.03165073	      7.62062335	     -3.54568331	      4.36004570	    -16.19163980	     -8.43763029	    -14.28703742	      4.58986748	     -6.26352593
      1.49150000	      2.70972174	      2.51963981	     -1.80553596	      0.39604811	      1.02476480	      0.30299195	     19.90162015	     -4.62712419	     -3.63591790	    -61.85742889	      0.15228920	    -11.90127634	     -0.95263173	     -5.17380154	      7.83401681	      7.69010756	     -3.14971451	      4.41560558	    -16.09111590	     -8.43691662	    -14.30558195	      4.84133742	     -6.39687029
